<svg width="273" height="73" viewBox="0 0 273 73" fill="none" xmlns="http://www.w3.org/2000/svg">
<path d="M73.3513 36.3556H73.3369L65.1457 31.3111C64.1737 30.7141 62.795 30.5324 61.5606 30.7343C61.5512 30.7369 61.5412 30.7366 61.532 30.7336C61.5228 30.7305 61.5146 30.7247 61.5087 30.717L59.1321 28.3462C57.7872 26.9999 56.1028 26.043 54.2578 25.5773C55.2184 23.3869 55.3607 20.9243 54.6587 18.6379C53.7078 18.3484 52.7194 18.2007 51.7254 18.1995C50.3547 18.1993 48.9987 18.4821 47.7423 19.0301C47.2703 17.2046 46.3171 15.5392 44.9821 14.2077L42.6084 11.834C42.6012 11.8276 42.5958 11.8195 42.5928 11.8104C42.5898 11.8013 42.5892 11.7915 42.5911 11.7821C42.8074 10.5477 42.6257 9.17187 42.0287 8.19989L36.9784 0.0144792C36.9649 0.00505006 36.9488 0 36.9323 0C36.9158 0 36.8996 0.00505006 36.8861 0.0144792L31.8358 8.19989C31.2388 9.17187 31.0571 10.5477 31.259 11.7821C31.2609 11.7915 31.2603 11.8013 31.2573 11.8104C31.2542 11.8195 31.2489 11.8276 31.2417 11.834L28.868 14.2077C27.533 15.5392 26.5798 17.2046 26.1078 19.0301C23.9215 18.076 21.4657 17.9369 19.1857 18.6379C18.8962 19.5888 18.7484 20.5772 18.7473 21.5711C18.7476 22.9501 19.0334 24.3141 19.5866 25.5773C17.7415 26.043 16.0571 26.9999 14.7122 28.3462L12.3356 30.717C12.3297 30.7247 12.3216 30.7305 12.3123 30.7336C12.3031 30.7366 12.2931 30.7369 12.2837 30.7343C11.0493 30.5209 9.67062 30.7026 8.69864 31.3111L0.507462 36.3556C0.501495 36.3616 0.497062 36.3689 0.49455 36.3769C0.492037 36.385 0.49152 36.3935 0.49304 36.4018C0.491755 36.4101 0.492384 36.4185 0.494884 36.4265C0.497384 36.4345 0.501689 36.4418 0.507462 36.4479L8.69864 41.4924C9.67062 42.0895 11.0493 42.2712 12.2837 42.0693C12.2928 42.0663 12.3026 42.0662 12.3118 42.0687C12.3211 42.0713 12.3293 42.0765 12.3356 42.0837L14.7122 44.4574C16.0516 45.7977 17.7275 46.7522 19.5635 47.2205C18.6233 49.3975 18.4894 51.8383 19.1857 54.1051C20.1365 54.3946 21.1249 54.5423 22.1189 54.5435C23.4841 54.5436 24.8348 54.2639 26.0876 53.7215C26.5551 55.5671 27.5139 57.2516 28.8622 58.5958L31.2359 60.9696C31.2431 60.9759 31.2485 60.9841 31.2515 60.9932C31.2546 61.0023 31.2551 61.0121 31.2532 61.0215C31.0369 62.2559 31.2186 63.6173 31.8301 64.6037L36.8803 72.7891V72.8035C36.8939 72.8129 36.91 72.818 36.9265 72.818C36.943 72.818 36.9591 72.8129 36.9726 72.8035V72.7891L42.0229 64.6037C42.6199 63.6317 42.8016 62.2559 42.5853 61.0215C42.5834 61.0121 42.584 61.0023 42.587 60.9932C42.5901 60.9841 42.5954 60.9759 42.6026 60.9696L44.9763 58.5958C46.3246 57.2516 47.2835 55.5671 47.751 53.7215C49.9326 54.6668 52.3799 54.8028 54.6529 54.1051C54.9433 53.1553 55.092 52.1679 55.0942 51.1747C55.0964 49.8152 54.8206 48.4696 54.2837 47.2205C56.1197 46.7522 57.7956 45.7977 59.135 44.4574L61.5116 42.0837C61.5179 42.0765 61.5261 42.0713 61.5354 42.0687C61.5446 42.0662 61.5544 42.0663 61.5635 42.0693C62.7979 42.2827 64.1766 42.101 65.1486 41.4924L73.3397 36.4479H73.3542C73.3599 36.4418 73.3642 36.4345 73.3667 36.4265C73.3692 36.4185 73.3699 36.4101 73.3686 36.4018C73.3698 36.3933 73.3688 36.3846 73.3658 36.3765C73.3627 36.3685 73.3577 36.3613 73.3513 36.3556ZM53.6059 19.6906C54.0185 21.5917 53.7882 23.5761 52.9512 25.3321C52.6134 25.2879 52.2736 25.261 51.9331 25.2514C52.2586 24.6288 52.4429 23.9421 52.4728 23.2402C52.5028 22.5383 52.3775 21.8384 52.1061 21.1904C51.4627 20.9193 50.7676 20.7927 50.0699 20.8196C49.3722 20.8465 48.6889 21.0263 48.0682 21.3462C48.0682 21.0058 48.025 20.6684 47.9817 20.3309C49.7324 19.4956 51.7123 19.2702 53.6059 19.6906ZM52.0282 26.3705C54.4785 26.5033 56.7899 27.5499 58.5062 29.3037L60.3233 31.1208C60.205 31.1785 60.081 31.2333 59.9714 31.2996L57.5285 32.8023C57.5175 32.8114 57.5038 32.8165 57.4895 32.8165C57.4753 32.8165 57.4615 32.8114 57.4506 32.8023L56.1527 31.5015C54.7588 30.1106 53.0057 29.1345 51.0891 28.6822C49.1726 28.2299 47.1681 28.3193 45.2994 28.9403L46.0839 28.1587C47.8063 26.9079 49.9016 26.2776 52.0282 26.3705ZM38.4724 28.0289H37.5033V22.6902C37.4576 21.5336 37.7374 20.3874 38.3109 19.382L39.8396 16.8987C39.8455 16.8914 39.853 16.8856 39.8615 16.8816C39.8699 16.8776 39.8792 16.8755 39.8886 16.8755C39.898 16.8755 39.9072 16.8776 39.9157 16.8816C39.9242 16.8856 39.9317 16.8914 39.9376 16.8987L40.9846 17.9428C41.8711 18.8283 42.5745 19.88 43.0543 21.0375C43.5342 22.1951 43.7812 23.4359 43.7812 24.689C43.7812 25.9421 43.5342 27.1828 43.0543 28.3404C42.5745 29.498 41.8711 30.5496 40.9846 31.4352L40.5202 31.8995V30.0882C40.5202 29.5458 40.3054 29.0255 39.9227 28.6412C39.5399 28.2569 39.0206 28.0398 38.4782 28.0375L38.4724 28.0289ZM38.4724 44.7747C38.7417 44.7747 39.0084 44.7216 39.2572 44.6186C39.506 44.5155 39.732 44.3645 39.9225 44.174C40.1129 43.9836 40.2639 43.7575 40.367 43.5087C40.4701 43.2599 40.5231 42.9933 40.5231 42.724V40.9127L40.9875 41.3742C41.8741 42.26 42.5775 43.3119 43.0574 44.4697C43.5373 45.6275 43.7843 46.8685 43.7843 48.1218C43.7843 49.3751 43.5373 50.6161 43.0574 51.7739C42.5775 52.9317 41.8741 53.9836 40.9875 54.8694L39.9405 55.9135C39.9345 55.9208 39.9271 55.9266 39.9186 55.9306C39.9101 55.9346 39.9008 55.9367 39.8915 55.9367C39.8821 55.9367 39.8728 55.9346 39.8643 55.9306C39.8559 55.9266 39.8484 55.9208 39.8424 55.9135L38.3138 53.4331C37.7403 52.4277 37.4605 51.2815 37.5062 50.1249V44.766L38.4724 44.7747ZM41.8931 40.4714L41.4316 40.0099H43.2372C43.781 40.0099 44.3026 39.7939 44.6872 39.4093C45.0718 39.0247 45.2878 38.5031 45.2878 37.9593V36.9786H50.6381C51.7942 36.9334 52.94 37.2121 53.9463 37.7833L56.4325 39.312C56.4397 39.3179 56.4455 39.3254 56.4495 39.3339C56.4535 39.3423 56.4556 39.3516 56.4556 39.361C56.4556 39.3704 56.4535 39.3796 56.4495 39.3881C56.4455 39.3966 56.4397 39.4041 56.4325 39.41L55.3855 40.457C53.5969 42.2434 51.1731 43.248 48.6452 43.2507C46.1172 43.2534 43.6913 42.254 41.8989 40.4714H41.8931ZM50.6438 35.8249H45.2936V34.8443C45.2936 34.575 45.2406 34.3083 45.1375 34.0595C45.0344 33.8107 44.8834 33.5847 44.693 33.3942C44.5025 33.2038 44.2765 33.0528 44.0277 32.9497C43.7789 32.8467 43.5122 32.7936 43.2429 32.7936H41.4374L41.8989 32.3322C43.6901 30.5424 46.1187 29.537 48.6508 29.537C51.183 29.537 53.6116 30.5424 55.4028 32.3322L56.4498 33.3791C56.457 33.3848 56.4628 33.392 56.4668 33.4003C56.4708 33.4085 56.4729 33.4175 56.4729 33.4267C56.4729 33.4359 56.4708 33.4449 56.4668 33.4532C56.4628 33.4614 56.457 33.4686 56.4498 33.4743L53.9636 35.0058C52.9554 35.5841 51.8053 35.8679 50.6438 35.8249ZM42.2046 13.0396L44.0217 14.8567C45.7793 16.5697 46.8284 18.881 46.9607 21.3317C47.054 23.4562 46.4247 25.5496 45.1754 27.2704L44.3937 28.0375C45.016 26.1702 45.1057 24.1664 44.6528 22.2508C44.1999 20.3353 43.2223 18.5839 41.8297 17.1929L40.5289 15.8979C40.5197 15.887 40.5147 15.8732 40.5147 15.8589C40.5147 15.8447 40.5197 15.8309 40.5289 15.82L42.0344 13.3799C42.095 13.2588 42.1498 13.1348 42.2046 13.0165V13.0396ZM33.6327 9.05362C34.4714 9.98065 35.1913 11.0086 35.7757 12.1138C36.0477 12.6333 36.2857 13.1699 36.4881 13.7203C36.6261 14.0823 36.7426 14.4521 36.8371 14.8278C36.8371 14.8278 36.8371 14.8278 36.8371 14.8596C36.8371 14.8913 36.863 14.9749 36.8746 15.0355C36.8746 15.0355 36.8746 15.0557 36.8746 15.0643C36.8976 15.1249 36.9265 15.1336 36.964 14.9836C36.964 14.9605 36.964 14.9374 36.9784 14.9144L36.9957 14.8278C37.0898 14.4548 37.2063 14.0879 37.3447 13.7289C37.5471 13.1786 37.7851 12.6419 38.0571 12.1224C38.6415 11.0173 39.3614 9.9893 40.2001 9.06227C40.4077 8.83153 40.6183 8.59215 40.8461 8.37295C40.6719 8.54974 40.5082 8.73657 40.3558 8.93249C40.2087 9.11419 40.0674 9.30167 39.9376 9.49203C39.4324 10.2351 38.9785 11.0118 38.5791 11.8167C38.1567 12.6227 37.811 13.4667 37.5466 14.3375C37.039 16.0882 37.0332 17.9428 36.9697 19.7454C36.9438 20.4492 36.9236 21.1529 36.9149 21.8567C36.9149 21.1529 36.8861 20.4492 36.8601 19.7454C36.7938 17.9428 36.788 16.0882 36.2833 14.3375C36.0189 13.4667 35.6732 12.6227 35.2508 11.8167C34.8514 11.0118 34.3975 10.2351 33.8923 9.49203C33.7596 9.30167 33.6212 9.11419 33.4741 8.93249C33.3217 8.73657 33.158 8.54974 32.9838 8.37295C33.2289 8.5835 33.425 8.82288 33.6327 9.05362ZM19.8865 35.0116L17.4032 33.4801C17.396 33.4744 17.3902 33.4672 17.3862 33.4589C17.3822 33.4507 17.3801 33.4416 17.3801 33.4325C17.3801 33.4233 17.3822 33.4143 17.3862 33.406C17.3902 33.3978 17.396 33.3905 17.4032 33.3849L18.4502 32.3379C20.2414 30.5481 22.67 29.5427 25.2021 29.5427C27.7343 29.5427 30.1629 30.5481 31.9541 32.3379L32.4156 32.7994H30.61C30.0662 32.7994 29.5446 33.0154 29.16 33.4C28.7754 33.7846 28.5594 34.3062 28.5594 34.8501V35.8249H23.1976C22.0392 35.8654 20.8925 35.5817 19.8865 35.0058V35.0116ZM23.1976 36.9786H28.5478V37.9477C28.5478 38.4916 28.7639 39.0132 29.1485 39.3978C29.533 39.7823 30.0546 39.9984 30.5985 39.9984H32.404L31.9426 40.4599C30.1513 42.2497 27.7228 43.255 25.1906 43.255C22.6584 43.255 20.2299 42.2497 18.4386 40.4599L17.3917 39.4129C17.3844 39.407 17.3786 39.3995 17.3746 39.391C17.3706 39.3825 17.3685 39.3733 17.3685 39.3639C17.3685 39.3545 17.3706 39.3452 17.3746 39.3368C17.3786 39.3283 17.3844 39.3208 17.3917 39.3148L19.875 37.7862C20.8824 37.2153 22.029 36.9367 23.1861 36.9815L23.1976 36.9786ZM32.8482 41.3626L33.3126 40.9012V42.7125C33.3122 42.982 33.3649 43.249 33.4678 43.4981C33.5707 43.7472 33.7217 43.9736 33.9122 44.1644C34.1026 44.3551 34.3288 44.5064 34.5778 44.6096C34.8268 44.7129 35.0937 44.766 35.3632 44.766H36.3323V50.1047C36.3827 51.2621 36.1068 52.4104 35.5363 53.4187L34.0077 55.8991C34.0017 55.9063 33.9942 55.9122 33.9857 55.9162C33.9773 55.9202 33.968 55.9223 33.9586 55.9223C33.9492 55.9223 33.94 55.9202 33.9315 55.9162C33.923 55.9122 33.9155 55.9063 33.9096 55.8991L32.8482 54.8608C31.0602 53.0721 30.0557 50.6466 30.0557 48.1175C30.0557 45.5884 31.0602 43.1628 32.8482 41.3742V41.3626ZM35.3632 28.0375C34.8194 28.0375 34.2978 28.2536 33.9132 28.6382C33.5286 29.0227 33.3126 29.5443 33.3126 30.0882V31.8995L32.8482 31.4352C31.9616 30.5496 31.2583 29.498 30.7785 28.3404C30.2986 27.1828 30.0516 25.9421 30.0516 24.689C30.0516 23.4359 30.2986 22.1951 30.7785 21.0375C31.2583 19.88 31.9616 18.8283 32.8482 17.9428L33.8952 16.8987C33.9011 16.8914 33.9086 16.8856 33.9171 16.8816C33.9256 16.8776 33.9348 16.8755 33.9442 16.8755C33.9536 16.8755 33.9628 16.8776 33.9713 16.8816C33.9798 16.8856 33.9873 16.8914 33.9932 16.8987L35.5363 19.3849C36.1098 20.3903 36.3896 21.5365 36.3439 22.6931V28.0375H35.3632ZM26.8836 21.3087C27.0159 18.8579 28.065 16.5466 29.8227 14.8336L31.6397 13.0165C31.6945 13.1348 31.7493 13.2588 31.8157 13.3713L33.3212 15.8113C33.3304 15.8222 33.3354 15.836 33.3354 15.8503C33.3354 15.8645 33.3304 15.8783 33.3212 15.8892L32.0204 17.1842C30.6278 18.5752 29.6502 20.3267 29.1973 22.2422C28.7444 24.1577 28.8341 26.1615 29.4564 28.0289L28.6747 27.2473C27.4234 25.5272 26.792 23.4338 26.8836 21.3087ZM20.2499 19.6906C22.1399 19.2728 24.1153 19.4982 25.8626 20.3309C25.8194 20.6684 25.7876 21.0058 25.7761 21.3462C25.1555 21.0263 24.4722 20.8465 23.7745 20.8196C23.0767 20.7927 22.3816 20.9193 21.7382 21.1904C21.4668 21.8384 21.3416 22.5383 21.3715 23.2402C21.4014 23.9421 21.5857 24.6288 21.9112 25.2514C21.5707 25.261 21.2309 25.2879 20.8931 25.3321C20.06 23.5747 19.8337 21.5905 20.2499 19.6906ZM15.3468 29.3037C17.063 27.5499 19.3745 26.5033 21.8247 26.3705C23.9438 26.2805 26.0313 26.9086 27.7489 28.1529L28.5334 28.9345C26.6657 28.3156 24.6627 28.2276 22.7479 28.6804C20.833 29.1331 19.0816 30.1088 17.6887 31.4986L16.3908 32.7994C16.3799 32.8085 16.3662 32.8136 16.3519 32.8136C16.3377 32.8136 16.3239 32.8085 16.313 32.7994L13.87 31.2967C13.7604 31.2304 13.6364 31.1756 13.5182 31.1179L15.3468 29.3037ZM12.2001 38.04C11.3812 38.4374 10.5909 38.8913 9.83502 39.3985C9.64178 39.5312 9.45142 39.6696 9.25818 39.8138C8.99271 40.0177 8.74389 40.2424 8.51405 40.4858C8.78751 40.1956 9.07634 39.9202 9.37932 39.6609C10.3241 38.8207 11.3694 38.1008 12.4914 37.518C13.0205 37.2453 13.5668 37.0074 14.1267 36.8056C14.4937 36.665 14.8695 36.5484 15.2516 36.4566H15.2747C15.3352 36.4566 15.3929 36.4277 15.4535 36.4191H15.4852C15.5458 36.396 15.5544 36.3643 15.4044 36.3297L15.3295 36.3124H15.2429C14.8616 36.221 14.4868 36.1044 14.121 35.9634C13.56 35.764 13.0136 35.526 12.4856 35.251C11.3642 34.6682 10.319 33.9495 9.37355 33.1109C9.14281 32.9061 8.89765 32.6927 8.67557 32.4648C8.8582 32.6393 9.05081 32.803 9.25241 32.9551C9.437 33.0993 9.62736 33.2436 9.82925 33.3734C10.5864 33.8784 11.3766 34.3322 12.1943 34.7318C13.014 35.155 13.8715 35.5007 14.7555 35.7644C16.5379 36.272 18.4242 36.2749 20.2557 36.3412C20.971 36.3672 21.6978 36.3874 22.4016 36.396C21.6863 36.396 20.9595 36.4248 20.2557 36.4508C18.4242 36.5171 16.5379 36.5229 14.7555 37.0276C13.8698 37.2833 13.0103 37.6222 12.1885 38.04H12.2001ZM20.2499 53.0553C19.8402 51.1745 20.0612 49.2112 20.8787 47.4685C21.2161 47.5118 21.5536 47.5406 21.8939 47.5522C21.5813 48.1686 21.4065 48.8457 21.3816 49.5365C21.3567 50.2273 21.4823 50.9152 21.7497 51.5526C22.3932 51.8237 23.0883 51.9503 23.786 51.9234C24.4837 51.8965 25.167 51.7167 25.7876 51.3968C25.7972 51.7383 25.8242 52.0791 25.8684 52.4179C24.1186 53.2492 22.1415 53.4735 20.2499 53.0553ZM21.8276 46.4216C19.377 46.294 17.0638 45.2501 15.3468 43.4969L13.5297 41.6799C13.6501 41.6276 13.7675 41.5689 13.8816 41.504L16.3245 39.9984C16.3358 39.9902 16.3495 39.9858 16.3634 39.9858C16.3774 39.9858 16.3911 39.9902 16.4024 39.9984L17.7003 41.2992C19.0942 42.6901 20.8473 43.6662 22.7638 44.1185C24.6804 44.5708 26.6849 44.4814 28.5536 43.8604L27.7489 44.6506C26.0275 45.8963 23.936 46.5243 21.8132 46.4331L21.8276 46.4216ZM31.6512 59.7755L29.8342 57.9584C28.0749 56.2501 27.0218 53.9432 26.8836 51.4949C26.7903 49.3705 27.4196 47.2771 28.669 45.5563L29.4506 44.7747C28.8283 46.6421 28.7386 48.6459 29.1915 50.5614C29.6444 52.4769 30.622 54.2284 32.0147 55.6193L33.3154 56.9143C33.3246 56.9252 33.3296 56.939 33.3296 56.9533C33.3296 56.9675 33.3246 56.9813 33.3154 56.9922L31.8099 59.4323C31.7459 59.5473 31.6881 59.6658 31.6368 59.787L31.6512 59.7755ZM40.2231 63.6807C39.38 62.7572 38.6552 61.7321 38.0657 60.6292C37.7937 60.1097 37.5558 59.5731 37.3533 59.0227C37.2153 58.6617 37.0988 58.2928 37.0044 57.918C37.0044 57.8863 37.0044 57.8604 36.9871 57.8373C36.9697 57.8142 36.9871 57.7883 36.9726 57.7652C36.9351 57.6152 36.9063 57.6239 36.8832 57.6844C36.8832 57.6844 36.8832 57.7046 36.8832 57.7162C36.8832 57.7738 36.8573 57.8344 36.8457 57.8921V57.9238C36.7512 58.2995 36.6347 58.6694 36.4967 59.0314C36.2943 59.5817 36.0564 60.1184 35.7843 60.6379C35.2 61.743 34.4801 62.771 33.6414 63.698C33.3815 64.0005 33.1062 64.2893 32.8165 64.5633C33.0602 64.3388 33.2841 64.0937 33.4856 63.8307C33.6327 63.649 33.774 63.4615 33.9038 63.2711C34.4103 62.5289 34.8642 61.7521 35.2623 60.9465C35.6852 60.1417 36.031 59.2986 36.2948 58.4286C36.8025 56.6749 36.8082 54.8204 36.8717 53.0178C36.8976 52.3169 36.9178 51.6131 36.9265 50.9094C36.9265 51.6131 36.9553 52.3169 36.9813 53.0178C37.0476 54.8204 37.0534 56.6749 37.5581 58.4286C37.822 59.2986 38.1677 60.1417 38.5907 60.9465C38.9887 61.7521 39.4427 62.5289 39.9491 63.2711C40.0818 63.4615 40.2203 63.649 40.3674 63.8307C40.5689 64.0937 40.7927 64.3388 41.0365 64.5633C40.7456 64.2875 40.4693 63.9968 40.2087 63.6923L40.2231 63.6807ZM46.9751 51.4834C46.8428 53.9341 45.7937 56.2454 44.0361 57.9584L42.219 59.7755C42.1668 59.6542 42.108 59.5357 42.0431 59.4207L40.5375 56.9807C40.5284 56.9698 40.5234 56.956 40.5234 56.9417C40.5234 56.9275 40.5284 56.9137 40.5375 56.9028L41.8383 55.6078C43.231 54.2168 44.2086 52.4654 44.6615 50.5498C45.1144 48.6343 45.0247 46.6305 44.4024 44.7631L45.184 45.5448C46.4328 47.2698 47.0592 49.3676 46.9607 51.4949L46.9751 51.4834ZM53.6088 53.0437C51.7209 53.4593 49.7483 53.2351 48.0019 52.4063C48.0461 52.0676 48.073 51.7268 48.0826 51.3853C48.7033 51.7052 49.3866 51.8849 50.0843 51.9118C50.782 51.9387 51.4771 51.8122 52.1205 51.541C52.3879 50.9036 52.5135 50.2157 52.4886 49.525C52.4637 48.8342 52.2889 48.1571 51.9763 47.5406C52.3167 47.5406 52.6541 47.5003 52.9916 47.457C53.8068 49.2046 54.0228 51.1724 53.6059 53.0553L53.6088 53.0437ZM58.512 43.4854C56.7975 45.2422 54.4852 46.2902 52.034 46.4216C49.9083 46.5148 47.8134 45.8866 46.0896 44.6391L45.3051 43.8575C47.1723 44.4784 49.1751 44.5686 51.0905 44.1179C53.0059 43.6672 54.7584 42.6933 56.1527 41.305L57.4506 40.0042C57.4619 39.996 57.4755 39.9915 57.4895 39.9915C57.5035 39.9915 57.5171 39.996 57.5285 40.0042L59.9714 41.5097C60.0854 41.5747 60.2029 41.6334 60.3233 41.6857L58.512 43.4854ZM64.5919 39.8023C64.4073 39.6581 64.217 39.5138 64.0151 39.3869C63.2592 38.8798 62.4689 38.4259 61.65 38.0285C60.8308 37.6041 59.9733 37.2584 59.0888 36.9959C57.3064 36.4883 55.4201 36.4825 53.5886 36.4191C52.8733 36.3931 52.1465 36.3729 51.4428 36.3643C52.158 36.3643 52.8849 36.3354 53.5886 36.3095C55.4201 36.2403 57.3064 36.2374 59.0888 35.7326C59.9728 35.4689 60.8303 35.1232 61.65 34.7001C62.4678 34.3005 63.2579 33.8467 64.0151 33.3416C64.2083 33.2061 64.3987 33.0676 64.5919 32.9234C64.7935 32.7713 64.9861 32.6075 65.1687 32.4331C64.9467 32.6609 64.7015 32.8744 64.4708 33.0792C63.5253 33.9177 62.4801 34.6365 61.3587 35.2193C60.8307 35.4943 60.2843 35.7323 59.7233 35.9317C59.3575 36.0727 58.9827 36.1893 58.6014 36.2806H58.5149L58.4399 36.298C58.2899 36.3326 58.2985 36.3643 58.3591 36.3874H58.3908C58.4514 36.3874 58.5091 36.4133 58.5697 36.4249H58.5927C58.9749 36.5167 59.3506 36.6332 59.7176 36.7738C60.2775 36.9756 60.8238 37.2136 61.3529 37.4862C62.4749 38.0691 63.5203 38.7889 64.465 39.6292C64.768 39.8885 65.0568 40.1639 65.3303 40.4541C65.0992 40.2217 64.8504 40.0076 64.5861 39.8138L64.5919 39.8023Z" fill="url(#paint0_linear_1370_5427)"/>
<path d="M272.298 37.6182C271.999 38.8859 271.401 40.0635 270.553 41.0525C269.706 42.0415 268.634 42.8132 267.427 43.303C265.363 44.0723 263.138 44.3055 260.96 43.9808C258.777 43.6924 256.671 42.9165 254.479 42.5992C253.68 42.4839 252.726 42.4637 252.221 43.0953C252.106 43.2367 251.99 43.4241 251.809 43.4184V32.79C251.918 32.7208 252.022 32.8852 252.048 33.0121C252.552 35.4189 253.775 37.6158 255.555 39.3115C257.336 41.0073 259.59 42.1216 262.019 42.5069C263.091 42.698 264.19 42.6794 265.255 42.4521C266.135 42.2162 266.952 41.7867 267.646 41.1949C268.34 40.6032 268.892 39.864 269.264 39.0315C269.564 38.2798 269.708 37.4749 269.688 36.6658C269.668 35.8566 269.483 35.06 269.146 34.3244C267.542 30.6672 263.804 29.0636 260.205 28.0166C256.833 27.036 253.225 25.2478 253.225 21.2099C253.239 19.8358 253.676 18.4993 254.476 17.3825C255.383 16.1395 256.596 15.1528 257.998 14.5185C259.601 13.7789 261.35 13.4093 263.115 13.4369C264.632 13.4369 266.103 13.7801 267.6 13.982C268.358 14.0801 270.245 14.1695 270.322 13.0273H270.498V21.5358H270.268C270.066 18.8304 268.309 16.5922 265.837 15.5366C264.869 15.1255 263.827 14.9146 262.774 14.9165C260.784 14.9165 258.716 15.6808 257.617 17.4287C257.177 18.1377 256.917 18.9437 256.861 19.7763C256.804 20.6089 256.952 21.4427 257.291 22.2049C257.597 22.8334 258.039 23.3853 258.587 23.8201C262.477 26.9927 268.43 27.5696 271.317 31.9594C271.858 32.7859 272.224 33.7143 272.393 34.6874C272.561 35.6606 272.529 36.6579 272.298 37.6182Z" fill="url(#paint1_linear_1370_5427)"/>
<path d="M217.054 14.7405C217.302 14.5497 217.572 14.3889 217.858 14.2618C218.161 14.1275 218.474 14.0213 218.796 13.9445C218.943 13.9099 219.084 13.8724 219.254 13.8464V13.6618H210.086V13.8464C210.25 13.8724 210.403 13.9099 210.547 13.9445C211.327 14.1076 212.047 14.484 212.627 15.0318C213.815 16.2115 213.573 17.9593 213.573 19.4908V38.0075C213.573 38.2065 213.449 38.942 213.573 39.1122L194.984 13.9387L194.831 13.7311L194.765 13.6445H188.688V13.8291C188.846 13.8551 188.999 13.8926 189.143 13.9272H189.161C189.968 14.0983 190.709 14.4989 191.295 15.0809C191.737 15.5533 192.024 16.1487 192.12 16.7883C192.12 16.8835 192.143 16.9787 192.149 17.0595C192.149 17.2181 192.172 17.3911 192.172 17.57V39.4583C192.172 39.6054 192.172 39.7467 192.157 39.8823C192.159 39.9082 192.159 39.9342 192.157 39.9602C192.083 40.7673 191.706 41.5164 191.102 42.057C190.545 42.535 189.878 42.8662 189.161 43.0203C189.013 43.0549 188.872 43.0895 188.702 43.1184V43.3231H199.258V43.1386C199.1 43.1097 198.947 43.0751 198.802 43.0405C198.077 42.8858 197.402 42.5504 196.841 42.0656C196.288 41.5675 195.925 40.8925 195.814 40.1563V40.064C195.81 40.0285 195.81 39.9927 195.814 39.9573C195.814 39.8044 195.797 39.6429 195.797 39.4756V20.9474L212.384 43.3231H219.228V43.1559C218.363 42.9482 217.443 42.6828 216.8 42.0541C216.343 41.5805 216.029 40.9877 215.894 40.3437C215.606 39.1641 215.721 37.8691 215.71 36.6664C215.71 35.3339 215.71 33.9985 215.71 32.666C215.733 30.0384 215.779 27.408 215.779 24.7776V18.8073C215.799 17.2642 215.71 15.7644 217.054 14.7405Z" fill="url(#paint2_linear_1370_5427)"/>
<path d="M159.932 13.6523V13.8369H159.845C158.62 13.984 158.227 15.6511 157.884 16.6058C157.241 18.3998 156.73 20.237 156.136 22.0454C156.013 22.4165 155.889 22.7915 155.764 23.1703C154.543 26.8236 153.324 30.477 152.107 34.1303C151.203 36.8472 150.3 39.5651 149.396 42.284C149.309 42.638 149.197 42.9851 149.058 43.3223L146.783 43.3771L146.613 42.9099L137.441 17.9412V17.8806C137.441 17.8806 137.441 17.8547 137.403 17.8027L137.386 17.7595C137.204 17.1768 136.943 16.6218 136.61 16.1097C135.338 13.9927 133.89 13.8658 133.657 13.8571H133.625V13.6696H143.639V13.8571H143.599C141.453 13.8773 141.052 15.3281 141.029 16.3087C141.029 16.4039 141.029 16.5135 141.029 16.626C141.036 16.7512 141.053 16.8756 141.081 16.998C141.081 17.024 141.081 17.0413 141.081 17.0586C141.13 17.2663 141.199 17.5633 141.32 17.9816L141.418 18.3507L148.418 37.7269L153.823 22.1291L154.613 19.7553C155.089 18.3334 155.851 16.4731 154.81 15.1406C154.271 14.4999 153.536 14.0556 152.719 13.8773H152.69V13.6898L159.932 13.6523Z" fill="url(#paint3_linear_1370_5427)"/>
<path d="M251.777 35.6289C251.812 35.7097 251.849 35.7818 251.887 35.8625L251.855 35.825L251.777 35.6289Z" fill="url(#paint4_linear_1370_5427)"/>
<path d="M130.816 13.6523V13.8196C130.446 13.8609 130.095 14.0036 129.801 14.2321C127.894 15.5992 127.897 18.2209 127.9 20.4072C127.9 21.4397 127.88 22.4781 127.874 23.5135C127.874 24.7018 127.874 25.893 127.874 27.0813V28.6128C127.874 28.6128 127.912 32.5295 127.912 32.5353C127.912 32.6305 127.912 32.7257 127.912 32.8237V32.9391C127.912 36.1666 127.046 39.717 124.54 41.7966C121.999 43.9165 118.379 44.2453 115.31 43.6886C112.764 43.23 110.058 42.0821 108.362 39.9103C106.666 37.7384 106.127 34.7619 106.196 31.9729V31.8431C106.225 30.7673 106.286 29.6915 106.286 28.6128V27.0842C106.286 26.7755 106.286 24.9008 106.286 22.4204C106.286 21.333 106.271 20.1274 106.26 18.8872C106.266 17.8041 106.044 16.7319 105.608 15.7405C105.187 14.8406 104.362 13.8341 103.344 13.8341V13.6552H112.706C112.71 13.7205 112.71 13.7861 112.706 13.8514C112.706 13.7966 112.417 13.8773 112.383 13.8917C112.228 13.9395 112.078 14.0033 111.936 14.0821C111.54 14.3246 111.19 14.6339 110.9 14.9964C110.58 15.3556 110.34 15.7795 110.197 16.2395C109.992 17.1063 109.916 17.9983 109.969 18.8872L109.954 22.4204L109.92 27.9956V30.6577C109.92 33.0574 109.842 35.6416 110.765 37.8856C111.116 38.723 111.645 39.4741 112.315 40.0867C112.986 40.6992 113.781 41.1587 114.647 41.4331C117.448 42.3359 120.992 41.9061 123.265 39.8439C124.287 38.9042 125.042 37.7098 125.451 36.3829C125.895 34.9725 125.884 33.5679 125.884 32.0998V18.8843C125.884 16.9548 125.105 14.1138 122.974 13.8081V13.6523H130.816Z" fill="url(#paint5_linear_1370_5427)"/>
<path d="M249.832 13.6523V13.8196C249.462 13.8609 249.11 14.0036 248.816 14.2321C246.91 15.5992 246.913 18.2209 246.916 20.4072C246.916 21.4397 246.895 22.4781 246.89 23.5135C246.89 24.7018 246.89 25.893 246.89 27.0813V28.6128C246.89 28.6128 246.927 32.5295 246.927 32.5353C246.927 32.6305 246.927 32.7257 246.927 32.8237V32.9391C246.927 36.1666 246.062 39.717 243.555 41.7966C241.014 43.9165 237.395 44.2453 234.326 43.6886C231.779 43.23 229.077 42.0821 227.378 39.9103C225.679 37.7384 225.143 34.7619 225.212 31.9729V31.8431C225.241 30.7673 225.301 29.6915 225.301 28.6128V27.0842C225.301 26.7755 225.301 24.9008 225.301 22.4204C225.301 21.333 225.301 20.1274 225.275 18.8872C225.281 17.8045 225.06 16.7325 224.626 15.7405C224.202 14.8406 223.378 13.8341 222.359 13.8341V13.6552H231.722C231.726 13.7205 231.726 13.7861 231.722 13.8514C231.722 13.7966 231.433 13.8773 231.399 13.8917C231.244 13.9401 231.094 14.0038 230.951 14.0821C230.556 14.3251 230.206 14.6344 229.916 14.9964C229.595 15.3556 229.355 15.7795 229.212 16.2395C229.008 17.1063 228.931 17.9983 228.984 18.8872V22.4204L228.95 27.9956V30.6577C228.95 33.0574 228.875 35.6416 229.798 37.8856C230.148 38.7232 230.676 39.4746 231.346 40.0872C232.016 40.6999 232.811 41.1592 233.677 41.4331C236.478 42.3359 240.022 41.9061 242.295 39.8439C243.317 38.9042 244.072 37.7098 244.481 36.3829C244.926 34.9725 244.914 33.5679 244.914 32.0998V18.8843C244.9 16.9548 244.135 14.1138 242.004 13.8081V13.6523H249.832Z" fill="url(#paint6_linear_1370_5427)"/>
<path d="M185.247 38.2534V41.5472C185.232 41.8123 185.232 42.078 185.247 42.3432V43.8141V43.9959H185.117C185.136 43.8553 185.106 43.7123 185.031 43.5917C184.957 43.4711 184.842 43.3804 184.707 43.3354H184.679H163.566V43.1537C163.713 43.1248 163.854 43.0989 163.993 43.0614H164.051C165.435 42.7153 166.185 42.0375 166.589 41.3597C166.609 41.3222 166.635 41.2818 166.655 41.2472C166.758 41.0738 166.837 40.8876 166.892 40.6934C166.909 40.6329 166.926 40.5723 166.941 40.5175C167.011 40.1799 167.045 39.8356 167.042 39.4907V17.6543C167.055 17.0025 166.915 16.3566 166.635 15.768C166.596 15.6909 166.554 15.6158 166.508 15.543C166.43 15.3988 166.326 15.2698 166.202 15.1623C165.622 14.5552 164.872 14.1379 164.051 13.9654L163.973 13.9423C163.834 13.9048 163.684 13.876 163.543 13.8471V13.6654H167.024H178.532H180.029H183.646H183.672C183.806 13.6209 183.921 13.5308 183.996 13.4107C184.07 13.2905 184.101 13.148 184.081 13.0078H184.214V13.1895V14.6576C184.194 14.9229 184.214 15.2027 184.214 15.4536V18.7214H184.073C184.073 18.7214 183.877 16.5756 183.055 15.7651C182.634 15.3469 181.757 15.3988 181.22 15.3815C178.754 15.2979 176.288 15.2748 173.819 15.2748H170.647V26.4511H177.964C178.916 26.4511 179.983 26.4021 180.811 25.8743C181.722 25.2773 182.158 24.1755 182.426 23.1199H182.593C182.593 24.7783 182.593 26.4396 182.593 28.0952V31.3716H182.412C182.383 31.2274 182.354 31.0976 182.316 30.965C182.316 30.9303 182.299 30.8957 182.288 30.864C182.123 30.1413 181.738 29.4878 181.185 28.9946C180.631 28.5014 179.938 28.1931 179.201 28.1125C178.243 28.0177 177.279 27.9926 176.317 28.0375H170.655V39.2542C170.654 39.5441 170.677 39.8335 170.725 40.1195C170.756 40.4019 170.84 40.6758 170.973 40.927C171.299 41.4693 171.878 41.7317 172.747 41.7317C174.662 41.7317 176.577 41.7115 178.492 41.7317C179.395 41.7317 180.297 41.7664 181.2 41.7808C182.103 41.7952 183.219 41.9192 183.995 41.2732C184.88 40.5348 185.091 38.2418 185.091 38.2418L185.247 38.2534Z" fill="url(#paint7_linear_1370_5427)"/>
<path d="M185.249 41.5469V42.3429C185.235 42.0778 185.235 41.812 185.249 41.5469Z" fill="url(#paint8_linear_1370_5427)"/>
<path d="M185.249 41.5469V42.3429C185.235 42.0778 185.235 41.812 185.249 41.5469Z" fill="url(#paint9_linear_1370_5427)"/>
<path d="M185.247 41.3671C185.247 41.4248 185.247 41.4882 185.247 41.5488V41.1133C185.244 41.1969 185.247 41.2835 185.247 41.3671Z" fill="url(#paint10_linear_1370_5427)"/>
<path d="M185.247 41.3671C185.247 41.4248 185.247 41.4882 185.247 41.5488V41.1133C185.244 41.1969 185.247 41.2835 185.247 41.3671Z" fill="url(#paint11_linear_1370_5427)"/>
<path d="M185.247 41.3671C185.247 41.4248 185.247 41.4882 185.247 41.5488V41.1133C185.244 41.1969 185.247 41.2835 185.247 41.3671Z" fill="url(#paint12_linear_1370_5427)"/>
<path d="M101.757 13.6659V13.8303C100.934 13.854 100.116 13.9662 99.3166 14.1649C98.5428 14.3396 97.8038 14.6428 97.1303 15.0619C95.5498 15.9935 93.9577 17.45 93.8567 19.4574C93.7558 21.4648 93.8885 23.4953 93.8885 25.5143V46.9613C93.8885 49.113 93.0405 51.0454 91.3677 52.7096C91.1629 52.9115 90.9466 53.1018 90.736 53.2864L90.6639 53.3499C90.0871 53.8546 85.8819 57.2263 80.4336 55.1208C80.4336 55.1208 83.2169 55.5073 85.7579 54.4055C86.3695 54.1473 86.9391 53.7993 87.448 53.373C87.5062 53.331 87.5611 53.2847 87.6124 53.2345C88.4725 52.4591 89.1013 51.4609 89.4295 50.3503L89.4814 50.183C89.8095 49.1401 89.9701 48.0517 89.9573 46.9584V22.2695C89.9573 21.4389 89.9573 20.6053 89.9573 19.7747V19.5526C89.9795 19.0091 89.9525 18.4646 89.8765 17.9259C89.7669 17.2625 89.0113 16.6626 88.5411 16.2358C87.7553 15.5326 86.8637 14.9574 85.8992 14.5312H85.8848L85.68 14.4648C85.4175 14.3841 85.1464 14.3062 84.8753 14.237C84.7195 14.1966 83.3178 13.914 82.5506 13.8217C82.4612 13.8217 82.3804 13.8015 82.3112 13.7986V13.6602H83.5832H83.638C84.6878 13.6602 85.7377 13.6602 86.7904 13.6602H91.9272H97.0582C98.111 13.6602 99.1608 13.6602 100.211 13.6602H100.265L101.757 13.6659Z" fill="url(#paint13_linear_1370_5427)"/>
<path d="M102.972 53.1465L104.648 57.9977H104.676L106.367 53.1465H108.097V59.7312H106.776V57.767L106.903 54.8597H106.877L105.112 59.734H104.227L102.47 54.8626H102.441L102.568 57.7468V59.711H101.25V53.1465H102.972Z" fill="url(#paint14_linear_1370_5427)"/>
<path d="M112.773 59.8234C112.459 59.8374 112.146 59.7842 111.855 59.6673C111.563 59.5504 111.3 59.3725 111.083 59.1456C110.652 58.6746 110.425 58.0527 110.451 57.4151V57.2363C110.426 56.5847 110.638 55.946 111.048 55.4394C111.453 55.0105 112.011 54.7589 112.6 54.7395C113.19 54.7201 113.763 54.9343 114.195 55.3356C114.576 55.7847 114.771 56.3625 114.74 56.9507V57.6689H111.821V57.6949C111.835 57.9891 111.95 58.2695 112.147 58.488C112.247 58.593 112.368 58.6752 112.503 58.729C112.637 58.7828 112.781 58.8068 112.926 58.7995C113.171 58.8062 113.416 58.776 113.653 58.7101C113.874 58.6367 114.087 58.54 114.287 58.4217L114.645 59.2379C114.409 59.4185 114.144 59.5561 113.86 59.6446C113.51 59.7629 113.143 59.8233 112.773 59.8234ZM112.658 55.7653C112.545 55.7625 112.434 55.7873 112.333 55.8376C112.233 55.8879 112.146 55.9621 112.081 56.0538C111.929 56.2718 111.838 56.5269 111.818 56.7921V56.8123H113.436V56.6969C113.448 56.4573 113.379 56.2206 113.24 56.0249C113.17 55.9392 113.081 55.871 112.98 55.826C112.879 55.7809 112.768 55.7601 112.658 55.7653Z" fill="url(#paint15_linear_1370_5427)"/>
<path d="M116.695 57.3232C116.664 56.6636 116.838 56.0105 117.194 55.4542C117.349 55.226 117.559 55.041 117.806 54.9169C118.052 54.7927 118.326 54.7334 118.601 54.7447C118.831 54.742 119.058 54.7965 119.262 54.9033C119.465 55.0151 119.641 55.1696 119.778 55.3561V52.6738H121.102V59.7286H119.969L119.859 59.1316C119.721 59.3438 119.534 59.5198 119.314 59.645C119.093 59.7655 118.844 59.8262 118.593 59.8209C118.324 59.8336 118.056 59.7803 117.812 59.6657C117.568 59.5511 117.356 59.3786 117.194 59.1633C116.844 58.656 116.669 58.0485 116.695 57.4328V57.3232ZM118.01 57.4184C117.993 57.7699 118.067 58.1198 118.226 58.4336C118.298 58.5554 118.402 58.6549 118.527 58.7206C118.652 58.7864 118.792 58.8158 118.933 58.8057C119.105 58.8089 119.276 58.7693 119.429 58.6903C119.574 58.6104 119.695 58.4928 119.778 58.35V56.2532C119.695 56.1059 119.576 55.982 119.432 55.8926C119.284 55.804 119.114 55.759 118.942 55.7628C118.794 55.7564 118.648 55.7941 118.522 55.8712C118.396 55.9483 118.296 56.0612 118.235 56.1955C118.071 56.5481 117.994 56.9347 118.01 57.3232V57.4184Z" fill="url(#paint16_linear_1370_5427)"/>
<path d="M124.899 53.666H123.578V52.6738H124.899V53.666ZM124.899 59.7229H123.578V54.8197H124.899V59.7229Z" fill="url(#paint17_linear_1370_5427)"/>
<path d="M129.43 58.8069C129.535 58.8135 129.64 58.7987 129.739 58.7635C129.838 58.7283 129.929 58.6734 130.006 58.6021C130.078 58.5312 130.134 58.4461 130.171 58.3522C130.208 58.2583 130.224 58.1577 130.22 58.057H131.42V58.0829C131.429 58.3186 131.384 58.5534 131.288 58.7686C131.191 58.9838 131.046 59.1737 130.863 59.3231C130.41 59.677 129.842 59.8529 129.268 59.8178C128.694 59.7828 128.152 59.5392 127.745 59.1328C127.337 58.6332 127.125 58.0011 127.151 57.3561V57.2206C127.122 56.5781 127.327 55.9469 127.728 55.4439C127.938 55.2076 128.198 55.022 128.49 54.9011C128.782 54.7801 129.097 54.7271 129.412 54.7459C129.947 54.7218 130.469 54.907 130.869 55.2622C131.052 55.4348 131.196 55.6457 131.288 55.8801C131.381 56.1144 131.421 56.3663 131.405 56.6178V56.6466H130.203C130.211 56.418 130.137 56.1939 129.995 56.015C129.925 55.9312 129.836 55.865 129.736 55.8215C129.636 55.7779 129.527 55.7582 129.418 55.764C129.269 55.752 129.119 55.7841 128.988 55.8564C128.857 55.9287 128.749 56.038 128.68 56.1707C128.523 56.4969 128.449 56.8563 128.463 57.2177V57.3532C128.448 57.7166 128.522 58.0782 128.68 58.406C128.751 58.5393 128.861 58.6485 128.994 58.7198C129.128 58.7912 129.279 58.8214 129.43 58.8069Z" fill="url(#paint18_linear_1370_5427)"/>
<path d="M136.425 59.7308C136.376 59.6156 136.335 59.497 136.301 59.376C136.266 59.2523 136.241 59.126 136.226 58.9982C136.092 59.2274 135.909 59.4243 135.69 59.5751C135.457 59.7349 135.179 59.8167 134.897 59.8087C134.466 59.8377 134.041 59.6957 133.714 59.4135C133.577 59.2745 133.47 59.1082 133.4 58.9255C133.331 58.7427 133.3 58.5474 133.311 58.3521C133.301 58.1341 133.347 57.9173 133.445 57.7221C133.542 57.5268 133.687 57.3595 133.867 57.2359C134.352 56.9415 134.916 56.8036 135.482 56.8408H136.195V56.4514C136.207 56.2517 136.141 56.0549 136.01 55.9034C135.937 55.8356 135.85 55.7834 135.756 55.7502C135.662 55.7169 135.562 55.7033 135.462 55.7102C135.284 55.6985 135.108 55.7541 134.969 55.8659C134.91 55.9209 134.864 55.9881 134.833 56.0628C134.803 56.1375 134.789 56.218 134.793 56.2986H133.518V56.2726C133.511 56.0636 133.556 55.8561 133.65 55.6691C133.744 55.4822 133.883 55.3217 134.055 55.2026C134.488 54.886 135.016 54.7272 135.552 54.7526C136.064 54.7298 136.569 54.8881 136.976 55.1997C137.16 55.3537 137.305 55.5484 137.4 55.7681C137.495 55.9879 137.538 56.2268 137.524 56.4659V58.4848C137.523 58.7012 137.541 58.9174 137.576 59.1309C137.612 59.3366 137.667 59.5384 137.741 59.7337L136.425 59.7308ZM135.22 58.8482C135.438 58.852 135.653 58.7918 135.837 58.6752C135.999 58.585 136.127 58.4456 136.203 58.2772V57.5878H135.468C135.236 57.5711 135.008 57.6457 134.831 57.7955C134.761 57.861 134.706 57.9402 134.669 58.028C134.632 58.1159 134.613 58.2106 134.614 58.306C134.611 58.3792 134.624 58.4523 134.651 58.52C134.679 58.5878 134.722 58.6486 134.776 58.6982C134.899 58.8036 135.058 58.8574 135.22 58.8482Z" fill="url(#paint19_linear_1370_5427)"/>
<path d="M141.305 59.7286H139.984V52.6738H141.305V59.7286Z" fill="url(#paint20_linear_1370_5427)"/>
<path d="M151.11 58.3229H148.803L148.356 59.7448H147.023L149.288 53.1602H150.64L152.896 59.7448H151.563L151.11 58.3229ZM149.126 57.2875H150.784L149.971 54.6917H149.945L149.126 57.2875Z" fill="url(#paint21_linear_1370_5427)"/>
<path d="M156.96 59.8232C156.646 59.8377 156.333 59.7847 156.041 59.6678C155.75 59.5509 155.487 59.3727 155.27 59.1454C154.837 58.6755 154.609 58.053 154.635 57.4148V57.236C154.608 56.5846 154.819 55.9456 155.229 55.4391C155.634 55.0104 156.191 54.7589 156.78 54.7395C157.369 54.72 157.942 54.9342 158.373 55.3353C158.755 55.784 158.951 56.3619 158.921 56.9505V57.6686H155.999V57.6946C156.012 57.9885 156.126 58.2689 156.322 58.4878C156.423 58.5929 156.544 58.6751 156.679 58.7288C156.814 58.7826 156.959 58.8066 157.104 58.7993C157.349 58.8057 157.594 58.7756 157.831 58.7099C158.051 58.6369 158.263 58.5402 158.463 58.4214L158.82 59.2377C158.586 59.4182 158.321 59.5559 158.039 59.6443C157.691 59.7615 157.327 59.8219 156.96 59.8232ZM156.842 55.7651C156.729 55.7625 156.618 55.7874 156.517 55.8376C156.417 55.8879 156.33 55.962 156.265 56.0535C156.112 56.271 156.022 56.5265 156.005 56.7918V56.812H157.623V56.6967C157.636 56.4568 157.567 56.2197 157.427 56.0247C157.356 55.9375 157.266 55.8685 157.163 55.8234C157.06 55.7782 156.948 55.7582 156.836 55.7651H156.842Z" fill="url(#paint22_linear_1370_5427)"/>
<path d="M163.728 58.3803C163.725 58.3055 163.705 58.2324 163.668 58.1671C163.631 58.1019 163.58 58.0464 163.517 58.0053C163.277 57.8598 163.012 57.7618 162.735 57.7169C162.266 57.6442 161.819 57.4657 161.429 57.1948C161.285 57.0843 161.17 56.941 161.093 56.7769C161.017 56.6128 160.98 56.4327 160.988 56.2517C160.987 56.044 161.035 55.839 161.127 55.6529C161.219 55.4667 161.353 55.3044 161.518 55.1788C161.925 54.8674 162.429 54.7109 162.94 54.7375C163.472 54.7101 163.997 54.8647 164.428 55.1759C164.602 55.3024 164.741 55.4696 164.834 55.6628C164.927 55.856 164.971 56.0692 164.962 56.2834V56.3123H163.687C163.691 56.2238 163.677 56.1354 163.644 56.0529C163.612 55.9705 163.563 55.8957 163.5 55.8335C163.425 55.7673 163.339 55.7167 163.245 55.6845C163.15 55.6523 163.051 55.6392 162.952 55.646C162.77 55.6355 162.591 55.6908 162.447 55.8018C162.389 55.8493 162.343 55.9093 162.311 55.9772C162.28 56.0451 162.264 56.1192 162.265 56.194C162.265 56.2668 162.282 56.3386 162.315 56.4033C162.348 56.4681 162.396 56.5239 162.456 56.5661C162.697 56.7013 162.963 56.7885 163.237 56.8228C163.719 56.8936 164.178 57.0753 164.578 57.3535C164.723 57.4677 164.839 57.6151 164.915 57.7832C164.992 57.9513 165.026 58.1353 165.017 58.3197C165.018 58.5332 164.965 58.7437 164.865 58.932C164.764 59.1203 164.618 59.2806 164.44 59.3984C164.001 59.6938 163.478 59.8395 162.949 59.8137C162.391 59.8447 161.842 59.6691 161.406 59.3205C161.234 59.1878 161.095 59.0168 161.001 58.821C160.907 58.6251 160.86 58.41 160.863 58.1928V58.1639H162.069C162.063 58.2736 162.083 58.383 162.128 58.4833C162.172 58.5836 162.24 58.6719 162.326 58.7408C162.514 58.8654 162.737 58.927 162.963 58.9167C163.16 58.9296 163.356 58.879 163.523 58.7725C163.586 58.7288 163.638 58.6702 163.674 58.6018C163.71 58.5334 163.728 58.4574 163.728 58.3803Z" fill="url(#paint23_linear_1370_5427)"/>
<path d="M168.808 53.6387V54.8385H169.633V55.7643H168.808V58.2563C168.794 58.402 168.836 58.5473 168.926 58.663C168.967 58.7041 169.017 58.7361 169.072 58.7569C169.126 58.7778 169.185 58.787 169.243 58.7841C169.303 58.7891 169.362 58.7891 169.422 58.7841C169.48 58.7754 169.538 58.7628 169.595 58.7466L169.708 59.6984C169.581 59.7427 169.452 59.7774 169.321 59.8022C169.185 59.8251 169.047 59.8357 168.909 59.834C168.717 59.8465 168.525 59.8197 168.344 59.7552C168.162 59.6907 167.997 59.5899 167.856 59.459C167.583 59.1263 167.451 58.6995 167.49 58.2707V55.7759H166.766V54.85H167.481V53.6502L168.808 53.6387Z" fill="url(#paint24_linear_1370_5427)"/>
<path d="M173.15 55.4542C173.3 55.2387 173.498 55.0602 173.727 54.9322C174.042 54.7664 174.402 54.7082 174.753 54.7666C175.105 54.8249 175.427 54.9965 175.671 55.2552C175.96 55.5927 176.107 56.1205 176.107 56.8242V59.7286H174.786V56.8098C174.813 56.5245 174.741 56.2386 174.584 55.9993C174.509 55.9172 174.416 55.8532 174.313 55.8122C174.209 55.7712 174.098 55.7543 173.987 55.7628C173.822 55.759 173.658 55.7925 173.508 55.8609C173.372 55.9221 173.253 56.0162 173.162 56.1349V59.7286H171.844V52.6738H173.162L173.15 55.4542Z" fill="url(#paint25_linear_1370_5427)"/>
<path d="M180.643 59.8232C180.329 59.8375 180.016 59.7845 179.725 59.6675C179.433 59.5506 179.17 59.3726 178.953 59.1454C178.52 58.6755 178.292 58.053 178.318 57.4148V57.236C178.294 56.5841 178.507 55.9455 178.918 55.4391C179.323 55.0104 179.88 54.7589 180.469 54.7395C181.058 54.72 181.631 54.9342 182.062 55.3353C182.444 55.784 182.641 56.3619 182.61 56.9505V57.6686H179.688V57.6946C179.702 57.9882 179.816 58.2682 180.011 58.4878C180.112 58.5925 180.234 58.6746 180.369 58.7283C180.503 58.782 180.648 58.8062 180.793 58.7993C181.038 58.8057 181.283 58.7756 181.52 58.7099C181.74 58.6369 181.952 58.5402 182.152 58.4214L182.509 59.2377C182.275 59.4182 182.01 59.5559 181.728 59.6443C181.378 59.7622 181.012 59.8226 180.643 59.8232ZM180.525 55.7651C180.412 55.762 180.301 55.7867 180.2 55.837C180.1 55.8873 180.013 55.9617 179.948 56.0535C179.794 56.2707 179.703 56.5262 179.686 56.7918L179.7 56.812H181.318V56.6967C181.33 56.4565 181.26 56.2194 181.119 56.0247C181.048 55.9371 180.957 55.8678 180.853 55.8227C180.75 55.7775 180.637 55.7578 180.525 55.7651Z" fill="url(#paint26_linear_1370_5427)"/>
<path d="M186.338 53.6387V54.8385H187.16V55.7643H186.338V58.2563C186.324 58.402 186.367 58.5473 186.456 58.663C186.497 58.704 186.547 58.736 186.601 58.7569C186.655 58.7777 186.713 58.787 186.771 58.7841C186.83 58.7891 186.89 58.7891 186.95 58.7841C187.009 58.7757 187.068 58.7632 187.125 58.7466L187.238 59.6984C187.111 59.7431 186.981 59.7778 186.849 59.8022C186.712 59.8251 186.574 59.8358 186.436 59.834C186.245 59.8464 186.053 59.8196 185.872 59.7551C185.692 59.6906 185.526 59.5899 185.386 59.459C185.112 59.1266 184.98 58.6999 185.017 58.2707V55.7759H184.305V54.85H185.017V53.6502L186.338 53.6387Z" fill="url(#paint27_linear_1370_5427)"/>
<path d="M190.778 53.666H189.457V52.6738H190.778V53.666ZM190.778 59.7229H189.457V54.8197H190.778V59.7229Z" fill="url(#paint28_linear_1370_5427)"/>
<path d="M195.309 58.8068C195.414 58.8129 195.519 58.7979 195.618 58.7628C195.717 58.7276 195.808 58.6729 195.886 58.602C195.957 58.531 196.013 58.4458 196.049 58.3518C196.085 58.2579 196.101 58.1575 196.096 58.0569H197.296L197.31 58.0829C197.319 58.3188 197.274 58.5536 197.177 58.7688C197.079 58.984 196.934 59.1737 196.751 59.3231C196.297 59.6769 195.73 59.8528 195.156 59.8178C194.582 59.7827 194.04 59.5391 193.633 59.1327C193.225 58.6327 193.015 58.0006 193.042 57.356V57.2205C193.013 56.5779 193.218 55.9467 193.619 55.4438C193.828 55.2077 194.089 55.0222 194.381 54.9013C194.672 54.7804 194.988 54.7272 195.303 54.7458C195.838 54.7216 196.362 54.9068 196.762 55.2621C196.946 55.4347 197.089 55.6457 197.182 55.88C197.275 56.1143 197.315 56.3662 197.299 56.6177V56.6465H196.096C196.105 56.4179 196.031 56.1939 195.889 56.0149C195.818 55.9312 195.73 55.8649 195.63 55.8214C195.53 55.7778 195.421 55.7582 195.312 55.764C195.162 55.7523 195.013 55.7845 194.882 55.8568C194.75 55.9291 194.643 56.0382 194.573 56.1706C194.418 56.4971 194.345 56.8564 194.36 57.2176V57.3532C194.343 57.7163 194.417 58.0779 194.573 58.4059C194.644 58.5363 194.752 58.6435 194.882 58.7146C195.012 58.7857 195.161 58.8177 195.309 58.8068Z" fill="url(#paint29_linear_1370_5427)"/>
<path d="M202.079 58.3803C202.077 58.3054 202.057 58.2321 202.02 58.1668C201.984 58.1014 201.932 58.046 201.869 58.0053C201.63 57.8591 201.366 57.7611 201.09 57.7169C200.62 57.6441 200.172 57.4656 199.78 57.1948C199.637 57.0842 199.523 56.9408 199.446 56.7767C199.37 56.6125 199.334 56.4325 199.342 56.2517C199.342 56.044 199.389 55.839 199.481 55.6529C199.573 55.4667 199.707 55.3044 199.873 55.1788C200.279 54.8669 200.783 54.7104 201.295 54.7375C201.826 54.7101 202.351 54.8647 202.783 55.1759C202.959 55.3044 203.099 55.475 203.192 55.6721C203.285 55.8691 203.327 56.0862 203.314 56.3036V56.3324H202.039C202.042 56.244 202.027 56.1559 201.995 56.0735C201.963 55.9911 201.914 55.9163 201.851 55.8537C201.702 55.7376 201.519 55.6721 201.33 55.6664C201.141 55.6607 200.955 55.7151 200.799 55.822C200.74 55.8688 200.693 55.9286 200.661 55.9966C200.629 56.0646 200.613 56.139 200.614 56.2142C200.614 56.2872 200.632 56.359 200.665 56.4238C200.699 56.4885 200.748 56.5442 200.807 56.5863C201.047 56.7221 201.312 56.8093 201.586 56.843C202.069 56.9141 202.529 57.0957 202.93 57.3737C203.074 57.489 203.188 57.6366 203.265 57.8044C203.341 57.9723 203.376 58.1557 203.368 58.3399C203.369 58.5534 203.317 58.7638 203.216 58.9522C203.116 59.1405 202.97 59.3008 202.792 59.4186C202.352 59.7137 201.829 59.8593 201.3 59.8339C200.742 59.8645 200.192 59.689 199.754 59.3407C199.583 59.2079 199.445 59.0367 199.351 58.8409C199.257 58.645 199.211 58.43 199.215 58.213V58.1841H200.424C200.418 58.2937 200.438 58.4032 200.482 58.5035C200.527 58.6038 200.595 58.6921 200.68 58.761C200.869 58.886 201.092 58.9476 201.318 58.9369C201.515 58.9494 201.711 58.8989 201.877 58.7927C201.943 58.7469 201.997 58.685 202.032 58.6128C202.067 58.5406 202.084 58.4605 202.079 58.3803Z" fill="url(#paint30_linear_1370_5427)"/>
<path d="M209.059 57.9552C209.05 57.6249 209.152 57.301 209.348 57.0351C209.604 56.7231 209.905 56.451 210.242 56.2275C210.062 55.992 209.908 55.7376 209.783 55.469C209.684 55.2486 209.633 55.0097 209.633 54.7681C209.622 54.5374 209.66 54.3069 209.744 54.0917C209.828 53.8766 209.956 53.6815 210.121 53.5193C210.297 53.3584 210.503 53.234 210.727 53.1533C210.951 53.0726 211.189 53.0372 211.427 53.0491C211.64 53.0427 211.851 53.079 212.049 53.1558C212.248 53.2326 212.428 53.3483 212.581 53.4962C212.726 53.6353 212.841 53.8029 212.919 53.9885C212.996 54.1741 213.034 54.3738 213.031 54.5749C213.035 54.8597 212.958 55.1397 212.809 55.3825C212.653 55.6362 212.447 55.8551 212.203 56.0256L211.785 56.3141L213.031 57.7562C213.14 57.5757 213.225 57.3818 213.285 57.1793C213.346 56.9616 213.376 56.7363 213.374 56.5102H214.361C214.364 56.9 214.313 57.2885 214.208 57.6639C214.111 58.0013 213.952 58.3174 213.738 58.5955L214.678 59.7001V59.7232H213.213L212.864 59.3194C212.62 59.481 212.353 59.6063 212.073 59.6915C211.793 59.7756 211.501 59.8174 211.208 59.8155C210.639 59.8463 210.079 59.662 209.639 59.2992C209.45 59.1312 209.3 58.9237 209.2 58.6915C209.1 58.4593 209.052 58.208 209.059 57.9552ZM211.28 58.806C211.442 58.8056 211.602 58.7852 211.759 58.7455C211.92 58.7048 212.076 58.6428 212.22 58.5609L210.865 56.9919L210.778 57.0524C210.644 57.1677 210.536 57.3116 210.464 57.4735C210.408 57.6039 210.38 57.7442 210.38 57.886C210.376 58.007 210.396 58.1276 210.439 58.2409C210.481 58.3543 210.546 58.4581 210.628 58.5465C210.713 58.6328 210.815 58.7006 210.927 58.7453C211.039 58.79 211.159 58.8107 211.28 58.806ZM210.819 54.7681C210.82 54.9075 210.854 55.0447 210.917 55.169C210.996 55.3313 211.092 55.4841 211.205 55.6247L211.595 55.3709C211.734 55.2896 211.851 55.1746 211.935 55.0364C211.993 54.9199 212.023 54.7915 212.021 54.6614C212.022 54.5105 211.963 54.3655 211.857 54.2576C211.802 54.1992 211.735 54.1533 211.661 54.123C211.587 54.0926 211.507 54.0785 211.427 54.0817C211.342 54.0767 211.256 54.0918 211.178 54.1259C211.099 54.16 211.029 54.212 210.974 54.2778C210.87 54.414 210.815 54.582 210.819 54.7537V54.7681Z" fill="url(#paint31_linear_1370_5427)"/>
<path d="M225.775 57.6582H225.801L226.741 53.1444H228.031L226.493 59.7291H225.267L224.062 55.3826H224.033L222.827 59.7291H221.602L220.059 53.1444H221.354L222.297 57.6525H222.326L223.56 53.1387H224.532L225.775 57.6582Z" fill="url(#paint32_linear_1370_5427)"/>
<path d="M232.054 59.8232C231.741 59.8375 231.427 59.7845 231.136 59.6675C230.844 59.5506 230.581 59.3726 230.364 59.1454C229.934 58.6744 229.707 58.0524 229.733 57.4148V57.236C229.707 56.5844 229.919 55.9457 230.33 55.4391C230.734 55.0104 231.291 54.7589 231.88 54.7395C232.469 54.72 233.042 54.9342 233.473 55.3353C233.856 55.784 234.052 56.3619 234.021 56.9505V57.6686H231.103V57.6946C231.116 57.9882 231.23 58.2682 231.426 58.4878C231.526 58.5925 231.648 58.6746 231.783 58.7283C231.917 58.782 232.062 58.8062 232.207 58.7993C232.453 58.8057 232.698 58.7756 232.934 58.7099C233.155 58.6365 233.368 58.5398 233.569 58.4214L233.923 59.2377C233.689 59.4188 233.424 59.5565 233.142 59.6443C232.791 59.7625 232.424 59.8229 232.054 59.8232ZM231.951 55.7651C231.838 55.762 231.727 55.7867 231.626 55.837C231.525 55.8873 231.439 55.9617 231.374 56.0535C231.22 56.2707 231.129 56.5262 231.111 56.7918L231.126 56.812H232.744V56.6967C232.752 56.4517 232.675 56.2114 232.527 56.016C232.457 55.933 232.368 55.8672 232.268 55.8237C232.168 55.7802 232.059 55.7602 231.951 55.7651Z" fill="url(#paint33_linear_1370_5427)"/>
<path d="M237.568 59.7286H236.25V52.6738H237.568V59.7286Z" fill="url(#paint34_linear_1370_5427)"/>
<path d="M241.427 59.7286H240.109V52.6738H241.427V59.7286Z" fill="url(#paint35_linear_1370_5427)"/>
<path d="M245.11 54.8357L245.171 55.5366C245.323 55.2998 245.528 55.1021 245.771 54.9597C246.015 54.8198 246.292 54.7481 246.573 54.7521C246.788 54.7407 247.002 54.7766 247.202 54.8574C247.401 54.9381 247.58 55.0617 247.726 55.2193C248.003 55.527 248.142 56.0134 248.142 56.6787V59.736H246.818V56.6672C246.842 56.4168 246.771 56.1665 246.619 55.9663C246.538 55.8933 246.443 55.8376 246.34 55.8024C246.237 55.7672 246.128 55.7533 246.019 55.7615C245.856 55.7582 245.695 55.7948 245.549 55.8683C245.411 55.9346 245.291 56.0336 245.2 56.1567V59.7158H243.879V54.8126L245.11 54.8357Z" fill="url(#paint36_linear_1370_5427)"/>
<path d="M252.683 59.8207C252.369 59.8351 252.056 59.782 251.765 59.6651C251.473 59.5482 251.21 59.3701 250.993 59.1429C250.563 58.6719 250.336 58.0499 250.361 57.4124V57.2336C250.336 56.582 250.548 55.9433 250.959 55.4367C251.156 55.2049 251.403 55.0213 251.682 54.8998C251.961 54.7784 252.264 54.7223 252.568 54.7358C252.852 54.7192 253.135 54.7639 253.4 54.8669C253.665 54.9699 253.905 55.1289 254.102 55.3329C254.485 55.7815 254.681 56.3594 254.65 56.948V57.6662H251.731V57.6922C251.745 57.9863 251.86 58.2667 252.057 58.4853C252.157 58.5903 252.278 58.6725 252.413 58.7263C252.547 58.7801 252.692 58.8041 252.836 58.7968C253.081 58.8033 253.326 58.7731 253.563 58.7074C253.784 58.634 253.997 58.5373 254.197 58.419L254.555 59.2352C254.32 59.4157 254.054 59.5534 253.771 59.6419C253.42 59.7602 253.053 59.8206 252.683 59.8207ZM252.568 55.7626C252.455 55.7598 252.344 55.7846 252.243 55.8349C252.143 55.8851 252.056 55.9594 251.991 56.051C251.839 56.2691 251.748 56.5242 251.729 56.7894L251.743 56.8096H253.361V56.6942C253.373 56.4545 253.304 56.2179 253.165 56.0222C253.093 55.9344 253.002 55.865 252.898 55.8199C252.794 55.7747 252.681 55.7551 252.568 55.7626Z" fill="url(#paint37_linear_1370_5427)"/>
<path d="M259.45 58.3803C259.448 58.3055 259.428 58.2322 259.391 58.1668C259.355 58.1015 259.303 58.0461 259.24 58.0054C259.002 57.8592 258.737 57.7612 258.461 57.717C257.991 57.6442 257.543 57.4657 257.152 57.1949C257.008 57.0844 256.893 56.9411 256.816 56.777C256.739 56.6129 256.703 56.4328 256.71 56.2518C256.71 56.0442 256.758 55.8395 256.85 55.6534C256.942 55.4674 257.076 55.305 257.241 55.1789C257.647 54.8675 258.152 54.711 258.663 54.7376C259.195 54.7097 259.721 54.8644 260.154 55.176C260.327 55.3026 260.466 55.47 260.558 55.6632C260.651 55.8564 260.694 56.0695 260.685 56.2835V56.3124H259.41C259.413 56.224 259.398 56.1358 259.366 56.0534C259.334 55.971 259.285 55.8962 259.222 55.8336C259.073 55.7175 258.89 55.652 258.701 55.6463C258.512 55.6406 258.326 55.695 258.17 55.8019C258.111 55.8487 258.064 55.9085 258.032 55.9765C258 56.0445 257.984 56.1189 257.985 56.1941C257.984 56.2672 258.002 56.3393 258.035 56.4042C258.069 56.4691 258.118 56.5247 258.178 56.5662C258.419 56.702 258.683 56.7892 258.957 56.8229C259.44 56.894 259.9 57.0756 260.301 57.3536C260.445 57.4689 260.56 57.6165 260.636 57.7843C260.712 57.9522 260.747 58.1356 260.739 58.3198C260.74 58.5332 260.687 58.7433 260.586 58.9315C260.486 59.1197 260.34 59.2801 260.163 59.3985C259.723 59.6936 259.2 59.8392 258.672 59.8138C258.113 59.845 257.563 59.6694 257.126 59.3206C256.954 59.1878 256.816 59.0166 256.722 58.8208C256.628 58.6249 256.582 58.4099 256.586 58.1929V58.164H257.792C257.787 58.2738 257.808 58.3832 257.853 58.4834C257.898 58.5836 257.966 58.6718 258.051 58.7409C258.24 58.8663 258.463 58.9279 258.689 58.9168C258.886 58.9293 259.082 58.8788 259.248 58.7726C259.312 58.7287 259.363 58.67 259.398 58.6016C259.433 58.5332 259.451 58.4573 259.45 58.3803Z" fill="url(#paint38_linear_1370_5427)"/>
<path d="M265.618 58.3803C265.616 58.3055 265.596 58.2322 265.559 58.1668C265.523 58.1015 265.471 58.0461 265.408 58.0054C265.169 57.8603 264.905 57.7623 264.629 57.717C264.159 57.6442 263.711 57.4657 263.319 57.1949C263.176 57.0844 263.061 56.9411 262.984 56.777C262.907 56.6129 262.871 56.4328 262.878 56.2518C262.878 56.0441 262.925 55.8391 263.018 55.653C263.11 55.4668 263.244 55.3045 263.409 55.1789C263.815 54.8675 264.319 54.711 264.831 54.7376C265.363 54.7097 265.889 54.8644 266.322 55.176C266.498 55.3045 266.638 55.4751 266.731 55.6721C266.824 55.8692 266.866 56.0863 266.853 56.3037V56.3325H265.578C265.581 56.2441 265.566 56.156 265.534 56.0736C265.502 55.9912 265.453 55.9164 265.39 55.8538C265.24 55.7379 265.057 55.6725 264.868 55.6668C264.678 55.6611 264.492 55.7154 264.335 55.822C264.277 55.8696 264.231 55.9296 264.199 55.9975C264.168 56.0654 264.152 56.1395 264.153 56.2143C264.152 56.2874 264.17 56.3595 264.203 56.4244C264.237 56.4892 264.286 56.5449 264.346 56.5864C264.587 56.7222 264.851 56.8094 265.125 56.8431C265.608 56.9142 266.068 57.0958 266.469 57.3738C266.613 57.4891 266.727 57.6366 266.804 57.8045C266.88 57.9724 266.915 58.1558 266.907 58.34C266.908 58.5534 266.855 58.7635 266.754 58.9517C266.654 59.1399 266.508 59.3003 266.331 59.4187C265.89 59.7142 265.366 59.8598 264.837 59.834C264.279 59.8647 263.73 59.6891 263.294 59.3408C263.122 59.208 262.984 59.0368 262.89 58.841C262.796 58.6451 262.75 58.4301 262.754 58.2131V58.1842H263.968C263.963 58.2941 263.983 58.4037 264.028 58.504C264.074 58.6043 264.142 58.6925 264.228 58.7611C264.416 58.8865 264.64 58.9481 264.865 58.937C265.062 58.9494 265.257 58.8989 265.422 58.7928C265.487 58.7466 265.54 58.6844 265.574 58.6122C265.608 58.5399 265.624 58.4601 265.618 58.3803Z" fill="url(#paint39_linear_1370_5427)"/>
<defs>
<linearGradient id="paint0_linear_1370_5427" x1="0.475735" y1="36.4018" x2="73.3657" y2="36.4018" gradientUnits="userSpaceOnUse">
<stop stop-color="#BD955D"/>
<stop offset="0.28" stop-color="#976F40"/>
<stop offset="0.42" stop-color="#C89B61"/>
<stop offset="0.56" stop-color="#EFBE7C"/>
<stop offset="0.63" stop-color="#FECB86"/>
<stop offset="0.71" stop-color="#EDBB7A"/>
<stop offset="0.87" stop-color="#BF935B"/>
<stop offset="1" stop-color="#976F40"/>
</linearGradient>
<linearGradient id="paint1_linear_1370_5427" x1="262.143" y1="44.1134" x2="262.143" y2="13.0216" gradientUnits="userSpaceOnUse">
<stop stop-color="#BD955D"/>
<stop offset="0.28" stop-color="#976F40"/>
<stop offset="0.42" stop-color="#C89B61"/>
<stop offset="0.56" stop-color="#EFBE7C"/>
<stop offset="0.63" stop-color="#FECB86"/>
<stop offset="0.71" stop-color="#EDBB7A"/>
<stop offset="0.87" stop-color="#BF935B"/>
<stop offset="1" stop-color="#976F40"/>
</linearGradient>
<linearGradient id="paint2_linear_1370_5427" x1="203.965" y1="43.3145" x2="203.965" y2="13.6445" gradientUnits="userSpaceOnUse">
<stop stop-color="#BD955D"/>
<stop offset="0.28" stop-color="#976F40"/>
<stop offset="0.42" stop-color="#C89B61"/>
<stop offset="0.56" stop-color="#EFBE7C"/>
<stop offset="0.63" stop-color="#FECB86"/>
<stop offset="0.71" stop-color="#EDBB7A"/>
<stop offset="0.87" stop-color="#BF935B"/>
<stop offset="1" stop-color="#976F40"/>
</linearGradient>
<linearGradient id="paint3_linear_1370_5427" x1="146.771" y1="43.3627" x2="146.771" y2="13.6523" gradientUnits="userSpaceOnUse">
<stop stop-color="#BD955D"/>
<stop offset="0.28" stop-color="#976F40"/>
<stop offset="0.42" stop-color="#C89B61"/>
<stop offset="0.56" stop-color="#EFBE7C"/>
<stop offset="0.63" stop-color="#FECB86"/>
<stop offset="0.71" stop-color="#EDBB7A"/>
<stop offset="0.87" stop-color="#BF935B"/>
<stop offset="1" stop-color="#976F40"/>
</linearGradient>
<linearGradient id="paint4_linear_1370_5427" x1="251.777" y1="35.7472" x2="251.887" y2="35.7472" gradientUnits="userSpaceOnUse">
<stop stop-color="#BD955D"/>
<stop offset="0.28" stop-color="#976F40"/>
<stop offset="0.42" stop-color="#C89B61"/>
<stop offset="0.56" stop-color="#EFBE7C"/>
<stop offset="0.63" stop-color="#FECB86"/>
<stop offset="0.71" stop-color="#EDBB7A"/>
<stop offset="0.87" stop-color="#BF935B"/>
<stop offset="1" stop-color="#976F40"/>
</linearGradient>
<linearGradient id="paint5_linear_1370_5427" x1="117.07" y1="43.9251" x2="117.07" y2="13.6523" gradientUnits="userSpaceOnUse">
<stop stop-color="#BD955D"/>
<stop offset="0.28" stop-color="#976F40"/>
<stop offset="0.42" stop-color="#C89B61"/>
<stop offset="0.56" stop-color="#EFBE7C"/>
<stop offset="0.63" stop-color="#FECB86"/>
<stop offset="0.71" stop-color="#EDBB7A"/>
<stop offset="0.87" stop-color="#BF935B"/>
<stop offset="1" stop-color="#976F40"/>
</linearGradient>
<linearGradient id="paint6_linear_1370_5427" x1="236.094" y1="43.9251" x2="236.094" y2="13.6523" gradientUnits="userSpaceOnUse">
<stop stop-color="#BD955D"/>
<stop offset="0.28" stop-color="#976F40"/>
<stop offset="0.42" stop-color="#C89B61"/>
<stop offset="0.56" stop-color="#EFBE7C"/>
<stop offset="0.63" stop-color="#FECB86"/>
<stop offset="0.71" stop-color="#EDBB7A"/>
<stop offset="0.87" stop-color="#BF935B"/>
<stop offset="1" stop-color="#976F40"/>
</linearGradient>
<linearGradient id="paint7_linear_1370_5427" x1="174.393" y1="43.9959" x2="174.393" y2="12.9819" gradientUnits="userSpaceOnUse">
<stop stop-color="#BD955D"/>
<stop offset="0.28" stop-color="#976F40"/>
<stop offset="0.42" stop-color="#C89B61"/>
<stop offset="0.56" stop-color="#EFBE7C"/>
<stop offset="0.63" stop-color="#FECB86"/>
<stop offset="0.71" stop-color="#EDBB7A"/>
<stop offset="0.87" stop-color="#BF935B"/>
<stop offset="1" stop-color="#976F40"/>
</linearGradient>
<linearGradient id="paint8_linear_1370_5427" x1="185.243" y1="42.3429" x2="185.243" y2="41.5469" gradientUnits="userSpaceOnUse">
<stop stop-color="#BD955D"/>
<stop offset="0.28" stop-color="#976F40"/>
<stop offset="0.42" stop-color="#C89B61"/>
<stop offset="0.56" stop-color="#EFBE7C"/>
<stop offset="0.63" stop-color="#FECB86"/>
<stop offset="0.71" stop-color="#EDBB7A"/>
<stop offset="0.87" stop-color="#BF935B"/>
<stop offset="1" stop-color="#976F40"/>
</linearGradient>
<linearGradient id="paint9_linear_1370_5427" x1="185.243" y1="42.3429" x2="185.243" y2="41.5469" gradientUnits="userSpaceOnUse">
<stop stop-color="#BD955D"/>
<stop offset="0.28" stop-color="#976F40"/>
<stop offset="0.42" stop-color="#C89B61"/>
<stop offset="0.56" stop-color="#EFBE7C"/>
<stop offset="0.63" stop-color="#FECB86"/>
<stop offset="0.71" stop-color="#EDBB7A"/>
<stop offset="0.87" stop-color="#BF935B"/>
<stop offset="1" stop-color="#976F40"/>
</linearGradient>
<linearGradient id="paint10_linear_1370_5427" x1="185.247" y1="41.5488" x2="185.247" y2="41.1133" gradientUnits="userSpaceOnUse">
<stop stop-color="#A3865D"/>
<stop offset="0.28" stop-color="#976F40"/>
<stop offset="0.42" stop-color="#C89B61"/>
<stop offset="0.56" stop-color="#EFBE7C"/>
<stop offset="0.63" stop-color="#FECB86"/>
<stop offset="0.71" stop-color="#EDBB7A"/>
<stop offset="0.87" stop-color="#BF935B"/>
<stop offset="1" stop-color="#976F40"/>
</linearGradient>
<linearGradient id="paint11_linear_1370_5427" x1="185.247" y1="41.5488" x2="185.247" y2="41.1133" gradientUnits="userSpaceOnUse">
<stop stop-color="#A3865D"/>
<stop offset="0.28" stop-color="#976F40"/>
<stop offset="0.42" stop-color="#C89B61"/>
<stop offset="0.56" stop-color="#EFBE7C"/>
<stop offset="0.63" stop-color="#FECB86"/>
<stop offset="0.71" stop-color="#EDBB7A"/>
<stop offset="0.87" stop-color="#BF935B"/>
<stop offset="1" stop-color="#976F40"/>
</linearGradient>
<linearGradient id="paint12_linear_1370_5427" x1="185.247" y1="41.5488" x2="185.247" y2="41.1133" gradientUnits="userSpaceOnUse">
<stop stop-color="#A3865D"/>
<stop offset="0.28" stop-color="#976F40"/>
<stop offset="0.42" stop-color="#C89B61"/>
<stop offset="0.56" stop-color="#EFBE7C"/>
<stop offset="0.63" stop-color="#FECB86"/>
<stop offset="0.71" stop-color="#EDBB7A"/>
<stop offset="0.87" stop-color="#BF935B"/>
<stop offset="1" stop-color="#976F40"/>
</linearGradient>
<linearGradient id="paint13_linear_1370_5427" x1="91.0937" y1="55.8015" x2="91.0937" y2="13.6515" gradientUnits="userSpaceOnUse">
<stop stop-color="#BD955D"/>
<stop offset="0.28" stop-color="#976F40"/>
<stop offset="0.47" stop-color="#C89B61"/>
<stop offset="0.64" stop-color="#EFBE7C"/>
<stop offset="0.73" stop-color="#FECB86"/>
<stop offset="0.79" stop-color="#EDBB7A"/>
<stop offset="0.91" stop-color="#BF935B"/>
<stop offset="1" stop-color="#976F40"/>
</linearGradient>
<linearGradient id="paint14_linear_1370_5427" x1="104.671" y1="92.669" x2="104.671" y2="68.4069" gradientUnits="userSpaceOnUse">
<stop stop-color="#BD955D"/>
<stop offset="0.28" stop-color="#976F40"/>
<stop offset="0.42" stop-color="#C89B61"/>
<stop offset="0.56" stop-color="#EFBE7C"/>
<stop offset="0.63" stop-color="#FECB86"/>
<stop offset="0.71" stop-color="#EDBB7A"/>
<stop offset="0.87" stop-color="#BF935B"/>
<stop offset="1" stop-color="#976F40"/>
</linearGradient>
<linearGradient id="paint15_linear_1370_5427" x1="112.597" y1="92.669" x2="112.597" y2="68.4069" gradientUnits="userSpaceOnUse">
<stop stop-color="#BD955D"/>
<stop offset="0.28" stop-color="#976F40"/>
<stop offset="0.42" stop-color="#C89B61"/>
<stop offset="0.56" stop-color="#EFBE7C"/>
<stop offset="0.63" stop-color="#FECB86"/>
<stop offset="0.71" stop-color="#EDBB7A"/>
<stop offset="0.87" stop-color="#BF935B"/>
<stop offset="1" stop-color="#976F40"/>
</linearGradient>
<linearGradient id="paint16_linear_1370_5427" x1="118.898" y1="92.6664" x2="118.898" y2="68.4044" gradientUnits="userSpaceOnUse">
<stop stop-color="#BD955D"/>
<stop offset="0.28" stop-color="#976F40"/>
<stop offset="0.42" stop-color="#C89B61"/>
<stop offset="0.56" stop-color="#EFBE7C"/>
<stop offset="0.63" stop-color="#FECB86"/>
<stop offset="0.71" stop-color="#EDBB7A"/>
<stop offset="0.87" stop-color="#BF935B"/>
<stop offset="1" stop-color="#976F40"/>
</linearGradient>
<linearGradient id="paint17_linear_1370_5427" x1="124.239" y1="92.6664" x2="124.239" y2="68.4044" gradientUnits="userSpaceOnUse">
<stop stop-color="#BD955D"/>
<stop offset="0.28" stop-color="#976F40"/>
<stop offset="0.42" stop-color="#C89B61"/>
<stop offset="0.56" stop-color="#EFBE7C"/>
<stop offset="0.63" stop-color="#FECB86"/>
<stop offset="0.71" stop-color="#EDBB7A"/>
<stop offset="0.87" stop-color="#BF935B"/>
<stop offset="1" stop-color="#976F40"/>
</linearGradient>
<linearGradient id="paint18_linear_1370_5427" x1="129.283" y1="92.6677" x2="129.283" y2="68.4056" gradientUnits="userSpaceOnUse">
<stop stop-color="#BD955D"/>
<stop offset="0.28" stop-color="#976F40"/>
<stop offset="0.42" stop-color="#C89B61"/>
<stop offset="0.56" stop-color="#EFBE7C"/>
<stop offset="0.63" stop-color="#FECB86"/>
<stop offset="0.71" stop-color="#EDBB7A"/>
<stop offset="0.87" stop-color="#BF935B"/>
<stop offset="1" stop-color="#976F40"/>
</linearGradient>
<linearGradient id="paint19_linear_1370_5427" x1="135.523" y1="92.6686" x2="135.523" y2="68.4065" gradientUnits="userSpaceOnUse">
<stop stop-color="#BD955D"/>
<stop offset="0.28" stop-color="#976F40"/>
<stop offset="0.42" stop-color="#C89B61"/>
<stop offset="0.56" stop-color="#EFBE7C"/>
<stop offset="0.63" stop-color="#FECB86"/>
<stop offset="0.71" stop-color="#EDBB7A"/>
<stop offset="0.87" stop-color="#BF935B"/>
<stop offset="1" stop-color="#976F40"/>
</linearGradient>
<linearGradient id="paint20_linear_1370_5427" x1="140.645" y1="92.6664" x2="140.645" y2="68.4044" gradientUnits="userSpaceOnUse">
<stop stop-color="#BD955D"/>
<stop offset="0.28" stop-color="#976F40"/>
<stop offset="0.42" stop-color="#C89B61"/>
<stop offset="0.56" stop-color="#EFBE7C"/>
<stop offset="0.63" stop-color="#FECB86"/>
<stop offset="0.71" stop-color="#EDBB7A"/>
<stop offset="0.87" stop-color="#BF935B"/>
<stop offset="1" stop-color="#976F40"/>
</linearGradient>
<linearGradient id="paint21_linear_1370_5427" x1="149.957" y1="92.6682" x2="149.957" y2="68.4061" gradientUnits="userSpaceOnUse">
<stop stop-color="#BD955D"/>
<stop offset="0.28" stop-color="#976F40"/>
<stop offset="0.42" stop-color="#C89B61"/>
<stop offset="0.56" stop-color="#EFBE7C"/>
<stop offset="0.63" stop-color="#FECB86"/>
<stop offset="0.71" stop-color="#EDBB7A"/>
<stop offset="0.87" stop-color="#BF935B"/>
<stop offset="1" stop-color="#976F40"/>
</linearGradient>
<linearGradient id="paint22_linear_1370_5427" x1="156.775" y1="92.6686" x2="156.775" y2="68.4066" gradientUnits="userSpaceOnUse">
<stop stop-color="#BD955D"/>
<stop offset="0.28" stop-color="#976F40"/>
<stop offset="0.42" stop-color="#C89B61"/>
<stop offset="0.56" stop-color="#EFBE7C"/>
<stop offset="0.63" stop-color="#FECB86"/>
<stop offset="0.71" stop-color="#EDBB7A"/>
<stop offset="0.87" stop-color="#BF935B"/>
<stop offset="1" stop-color="#976F40"/>
</linearGradient>
<linearGradient id="paint23_linear_1370_5427" x1="162.934" y1="92.6678" x2="162.934" y2="68.4058" gradientUnits="userSpaceOnUse">
<stop stop-color="#BD955D"/>
<stop offset="0.28" stop-color="#976F40"/>
<stop offset="0.42" stop-color="#C89B61"/>
<stop offset="0.56" stop-color="#EFBE7C"/>
<stop offset="0.63" stop-color="#FECB86"/>
<stop offset="0.71" stop-color="#EDBB7A"/>
<stop offset="0.87" stop-color="#BF935B"/>
<stop offset="1" stop-color="#976F40"/>
</linearGradient>
<linearGradient id="paint24_linear_1370_5427" x1="168.242" y1="92.6679" x2="168.242" y2="68.4059" gradientUnits="userSpaceOnUse">
<stop stop-color="#BD955D"/>
<stop offset="0.28" stop-color="#976F40"/>
<stop offset="0.42" stop-color="#C89B61"/>
<stop offset="0.56" stop-color="#EFBE7C"/>
<stop offset="0.63" stop-color="#FECB86"/>
<stop offset="0.71" stop-color="#EDBB7A"/>
<stop offset="0.87" stop-color="#BF935B"/>
<stop offset="1" stop-color="#976F40"/>
</linearGradient>
<linearGradient id="paint25_linear_1370_5427" x1="173.964" y1="92.6664" x2="173.964" y2="68.4044" gradientUnits="userSpaceOnUse">
<stop stop-color="#BD955D"/>
<stop offset="0.28" stop-color="#976F40"/>
<stop offset="0.42" stop-color="#C89B61"/>
<stop offset="0.56" stop-color="#EFBE7C"/>
<stop offset="0.63" stop-color="#FECB86"/>
<stop offset="0.71" stop-color="#EDBB7A"/>
<stop offset="0.87" stop-color="#BF935B"/>
<stop offset="1" stop-color="#976F40"/>
</linearGradient>
<linearGradient id="paint26_linear_1370_5427" x1="180.464" y1="92.6686" x2="180.464" y2="68.4066" gradientUnits="userSpaceOnUse">
<stop stop-color="#BD955D"/>
<stop offset="0.28" stop-color="#976F40"/>
<stop offset="0.42" stop-color="#C89B61"/>
<stop offset="0.56" stop-color="#EFBE7C"/>
<stop offset="0.63" stop-color="#FECB86"/>
<stop offset="0.71" stop-color="#EDBB7A"/>
<stop offset="0.87" stop-color="#BF935B"/>
<stop offset="1" stop-color="#976F40"/>
</linearGradient>
<linearGradient id="paint27_linear_1370_5427" x1="185.77" y1="92.6679" x2="185.77" y2="68.4059" gradientUnits="userSpaceOnUse">
<stop stop-color="#BD955D"/>
<stop offset="0.28" stop-color="#976F40"/>
<stop offset="0.42" stop-color="#C89B61"/>
<stop offset="0.56" stop-color="#EFBE7C"/>
<stop offset="0.63" stop-color="#FECB86"/>
<stop offset="0.71" stop-color="#EDBB7A"/>
<stop offset="0.87" stop-color="#BF935B"/>
<stop offset="1" stop-color="#976F40"/>
</linearGradient>
<linearGradient id="paint28_linear_1370_5427" x1="190.118" y1="92.6664" x2="190.118" y2="68.4044" gradientUnits="userSpaceOnUse">
<stop stop-color="#BD955D"/>
<stop offset="0.28" stop-color="#976F40"/>
<stop offset="0.42" stop-color="#C89B61"/>
<stop offset="0.56" stop-color="#EFBE7C"/>
<stop offset="0.63" stop-color="#FECB86"/>
<stop offset="0.71" stop-color="#EDBB7A"/>
<stop offset="0.87" stop-color="#BF935B"/>
<stop offset="1" stop-color="#976F40"/>
</linearGradient>
<linearGradient id="paint29_linear_1370_5427" x1="195.165" y1="92.6676" x2="195.165" y2="68.4055" gradientUnits="userSpaceOnUse">
<stop stop-color="#BD955D"/>
<stop offset="0.28" stop-color="#976F40"/>
<stop offset="0.42" stop-color="#C89B61"/>
<stop offset="0.56" stop-color="#EFBE7C"/>
<stop offset="0.63" stop-color="#FECB86"/>
<stop offset="0.71" stop-color="#EDBB7A"/>
<stop offset="0.87" stop-color="#BF935B"/>
<stop offset="1" stop-color="#976F40"/>
</linearGradient>
<linearGradient id="paint30_linear_1370_5427" x1="201.289" y1="92.6678" x2="201.289" y2="68.4058" gradientUnits="userSpaceOnUse">
<stop stop-color="#BD955D"/>
<stop offset="0.28" stop-color="#976F40"/>
<stop offset="0.42" stop-color="#C89B61"/>
<stop offset="0.56" stop-color="#EFBE7C"/>
<stop offset="0.63" stop-color="#FECB86"/>
<stop offset="0.71" stop-color="#EDBB7A"/>
<stop offset="0.87" stop-color="#BF935B"/>
<stop offset="1" stop-color="#976F40"/>
</linearGradient>
<linearGradient id="paint31_linear_1370_5427" x1="211.877" y1="92.6668" x2="211.877" y2="68.4047" gradientUnits="userSpaceOnUse">
<stop stop-color="#BD955D"/>
<stop offset="0.28" stop-color="#976F40"/>
<stop offset="0.42" stop-color="#C89B61"/>
<stop offset="0.56" stop-color="#EFBE7C"/>
<stop offset="0.63" stop-color="#FECB86"/>
<stop offset="0.71" stop-color="#EDBB7A"/>
<stop offset="0.87" stop-color="#BF935B"/>
<stop offset="1" stop-color="#976F40"/>
</linearGradient>
<linearGradient id="paint32_linear_1370_5427" x1="224.045" y1="92.6668" x2="224.045" y2="68.4048" gradientUnits="userSpaceOnUse">
<stop stop-color="#BD955D"/>
<stop offset="0.28" stop-color="#976F40"/>
<stop offset="0.42" stop-color="#C89B61"/>
<stop offset="0.56" stop-color="#EFBE7C"/>
<stop offset="0.63" stop-color="#FECB86"/>
<stop offset="0.71" stop-color="#EDBB7A"/>
<stop offset="0.87" stop-color="#BF935B"/>
<stop offset="1" stop-color="#976F40"/>
</linearGradient>
<linearGradient id="paint33_linear_1370_5427" x1="231.876" y1="92.6686" x2="231.876" y2="68.4066" gradientUnits="userSpaceOnUse">
<stop stop-color="#BD955D"/>
<stop offset="0.28" stop-color="#976F40"/>
<stop offset="0.42" stop-color="#C89B61"/>
<stop offset="0.56" stop-color="#EFBE7C"/>
<stop offset="0.63" stop-color="#FECB86"/>
<stop offset="0.71" stop-color="#EDBB7A"/>
<stop offset="0.87" stop-color="#BF935B"/>
<stop offset="1" stop-color="#976F40"/>
</linearGradient>
<linearGradient id="paint34_linear_1370_5427" x1="236.91" y1="92.6664" x2="236.91" y2="68.4044" gradientUnits="userSpaceOnUse">
<stop stop-color="#BD955D"/>
<stop offset="0.28" stop-color="#976F40"/>
<stop offset="0.42" stop-color="#C89B61"/>
<stop offset="0.56" stop-color="#EFBE7C"/>
<stop offset="0.63" stop-color="#FECB86"/>
<stop offset="0.71" stop-color="#EDBB7A"/>
<stop offset="0.87" stop-color="#BF935B"/>
<stop offset="1" stop-color="#976F40"/>
</linearGradient>
<linearGradient id="paint35_linear_1370_5427" x1="240.767" y1="92.6664" x2="240.767" y2="68.4044" gradientUnits="userSpaceOnUse">
<stop stop-color="#BD955D"/>
<stop offset="0.28" stop-color="#976F40"/>
<stop offset="0.42" stop-color="#C89B61"/>
<stop offset="0.56" stop-color="#EFBE7C"/>
<stop offset="0.63" stop-color="#FECB86"/>
<stop offset="0.71" stop-color="#EDBB7A"/>
<stop offset="0.87" stop-color="#BF935B"/>
<stop offset="1" stop-color="#976F40"/>
</linearGradient>
<linearGradient id="paint36_linear_1370_5427" x1="246.013" y1="92.665" x2="246.013" y2="68.403" gradientUnits="userSpaceOnUse">
<stop stop-color="#BD955D"/>
<stop offset="0.28" stop-color="#976F40"/>
<stop offset="0.42" stop-color="#C89B61"/>
<stop offset="0.56" stop-color="#EFBE7C"/>
<stop offset="0.63" stop-color="#FECB86"/>
<stop offset="0.71" stop-color="#EDBB7A"/>
<stop offset="0.87" stop-color="#BF935B"/>
<stop offset="1" stop-color="#976F40"/>
</linearGradient>
<linearGradient id="paint37_linear_1370_5427" x1="252.504" y1="92.6662" x2="252.504" y2="68.4041" gradientUnits="userSpaceOnUse">
<stop stop-color="#BD955D"/>
<stop offset="0.28" stop-color="#976F40"/>
<stop offset="0.42" stop-color="#C89B61"/>
<stop offset="0.56" stop-color="#EFBE7C"/>
<stop offset="0.63" stop-color="#FECB86"/>
<stop offset="0.71" stop-color="#EDBB7A"/>
<stop offset="0.87" stop-color="#BF935B"/>
<stop offset="1" stop-color="#976F40"/>
</linearGradient>
<linearGradient id="paint38_linear_1370_5427" x1="258.66" y1="92.6679" x2="258.66" y2="68.4059" gradientUnits="userSpaceOnUse">
<stop stop-color="#BD955D"/>
<stop offset="0.28" stop-color="#976F40"/>
<stop offset="0.42" stop-color="#C89B61"/>
<stop offset="0.56" stop-color="#EFBE7C"/>
<stop offset="0.63" stop-color="#FECB86"/>
<stop offset="0.71" stop-color="#EDBB7A"/>
<stop offset="0.87" stop-color="#BF935B"/>
<stop offset="1" stop-color="#976F40"/>
</linearGradient>
<linearGradient id="paint39_linear_1370_5427" x1="264.825" y1="92.6679" x2="264.825" y2="68.4059" gradientUnits="userSpaceOnUse">
<stop stop-color="#BD955D"/>
<stop offset="0.28" stop-color="#976F40"/>
<stop offset="0.42" stop-color="#C89B61"/>
<stop offset="0.56" stop-color="#EFBE7C"/>
<stop offset="0.63" stop-color="#FECB86"/>
<stop offset="0.71" stop-color="#EDBB7A"/>
<stop offset="0.87" stop-color="#BF935B"/>
<stop offset="1" stop-color="#976F40"/>
</linearGradient>
</defs>
</svg>
